<?xml version="1.0" encoding="UTF-8" standalone="no"?>
<svg id="svg2" xmlns:rdf="http://www.w3.org/1999/02/22-rdf-syntax-ns#" xmlns="http://www.w3.org/2000/svg" height="196.65" width="761.1" version="1.1" xmlns:cc="http://creativecommons.org/ns#" xmlns:dc="http://purl.org/dc/elements/1.1/" viewBox="0 0 761.10127 196.65375">
 <metadata id="metadata12">
  <rdf:RDF>
   <cc:Work rdf:about="">
    <dc:format>image/svg+xml</dc:format>
    <dc:type rdf:resource="http://purl.org/dc/dcmitype/StillImage"/>
    <dc:title/>
   </cc:Work>
  </rdf:RDF>
 </metadata>
 <defs id="defs10">
  <clipPath id="clipPath4183" clipPathUnits="userSpaceOnUse">
   <path id="path4185" d="m0 157.32h608.88v-157.32h-608.88v157.32z"/>
  </clipPath>
  <clipPath id="clipPath4199" clipPathUnits="userSpaceOnUse">
   <path id="path4201" d="m0 157.32h608.88v-157.32h-608.88v157.32z"/>
  </clipPath>
  <clipPath id="clipPath4377" clipPathUnits="userSpaceOnUse">
   <path id="path4379" d="m20.834 136.49h567.21v-115.65h-567.21v115.65z"/>
  </clipPath>
 </defs>
 <g id="g4177" transform="matrix(1.25 0 0 -1.25 0 196.65)">
  <g id="g4179">
   <g id="g4181" clip-path="url(#clipPath4183)">
    <g id="g4187" transform="translate(109.41 110.16)">
     <path id="path4189" d="m0 0c-11.332-11.39-22.014-17.566-31.734-18.302-7.477-0.563-15.404 1.663-23.543 6.628-6.732 4.103-11.925 9.006-15.034 11.932l-0.316 0.298h-0.002 0.002c5.552 5.943 12.608 10.322 20.462 12.686 0 0.003 0 0.003 0.002 0.005l0.005-0.002c-0.002 0-0.005-0.003-0.007-0.003-0.837-3.074-0.987-6.367-0.47-9.659 0.928-5.905 3.967-11.122 8.344-14.305 3.422-2.492 7.432-3.535 11.292-2.926 3.853 0.606 7.354 2.827 9.845 6.249 3.19 4.374 4.483 10.27 3.554 16.175-0.17 1.086-0.416 2.157-0.729 3.203l0.002-0.003c5.664-2.157 10.903-5.313 15.543-9.355 0.944-0.824 1.877-1.703 2.786-2.618l-0.002-0.003zm-53.462-45.739c-1.177-6.944-2.789-16.425-1.338-30.755l-0.005 0.005c-3.814 1.933-7.422 4.347-10.664 7.172-8.84 7.701-14.816 18.184-16.82 29.508-1.933 10.884-0.123 21.979 5.086 31.346h-0.003l0.003 0.002v-0.002c1.984-2.074 4.382-4.456 6.895-6.948 6.15-6.093 13.121-13.002 16.511-17.915 1.964-2.846 1.352-6.446 0.335-12.413m65.424 43.615c4.771 5.635 6.884 8.24 6.426 9.661-0.348 1.065-1.459 2.004-3.13 2.639-1.798 0.681-4.262 0.995-5.501 0.268-0.413-0.241-1.084-0.998-2.698-2.824l-1.507-1.7h-0.006c-0.96 0.981-1.984 1.958-2.987 2.829-7.293 6.359-16.238 10.503-25.869 12-3.881 4.125-8.944 6.04-13.926 5.259-4.181-0.659-7.866-3.156-10.39-7.04-9.789-2.98-18.653-8.596-25.672-16.267v0.006c-1.569 0.469-5.011-0.14-7.163-1.32-1.24-0.679-1.948-1.467-2.103-2.349-0.119-0.668 0.152-1.714 2.834-4.774l-0.002-0.003c-6.893-10.983-9.881-23.98-8.393-36.607 1.527-12.951 7.676-24.704 17.313-33.108 3.419-2.975 7.169-5.459 11.203-7.423 5.819-2.832 12.244-4.809 19.109-5.729 14.417-1.923 28.347 1.153 39.754 7.809l0.021 0.017c1.454 0.807 1.982 2.577 1.253 4.218l-0.217 0.491c-2.964 6.643-11.983 26.859-6.96 45.303 2.1 7.719 8.159 15.94 13.394 22.39h0.003c5.573-8.655 8.421-18.951 8.008-29.06-0.391-9.583-3.548-18.498-9.167-25.986-0.172-0.21-0.263-0.477-0.244-0.767 0.009-0.121 0.035-0.236 0.08-0.341l0.572-1.333c0.185-0.396 0.603-0.663 1.067-0.631 0.311 0.025 0.591 0.175 0.77 0.4 14.804 18.775 16.578 44.614 4.128 63.972" fill="#fd2415"/>
    </g>
    <g id="g4191" transform="translate(240.77 85.326)">
     <path id="path4193" d="m0 0h-8.525l-5.484-14.067-5.426 14.067h-7.837l10.848-25.542h4.908l11.516 25.542zm253.54-18.569c-1.666-1.487-3.051-2.096-4.76-2.096-3.774 0-6.139 3.092-6.139 7.742 0 5.092 2.365 8.034 6.416 8.034 1.432 0 3.313-0.674 4.483-1.486v-12.194zm8.025 30.788h-8.025v-13.338c-2.162 1.037-4.315 1.593-6.657 1.593-7.3 0-12.394-5.421-12.394-13.235 0-7.639 5.094-13.286 11.963-13.286 2.709 0 4.81 0.718 7.088 2.547v-2.042h8.025v37.761zm76.28-11.774c-3.146 0-5.867-1.326-8.191-4.261v3.796h-8.025v-25.551h8.025v15.216c0 2.154 1.67 4.939 5.371 4.939 2.49 0 4.149-1.782 4.149-5.598v-14.557h8.039v16.27c0 6.93-4.709 9.746-9.368 9.746m-28.32-10.322c-0.334 3.502-2.434 5.581-5.533 5.581-3.152 0-5.203-2.038-5.533-5.581h11.066zm7.096-4.21h-18.33c0.283-4.54 3.375-7.203 8.41-7.203 3.215 0 5.709 0.942 9.474 3.654v-5.033c-4.595-3.378-9.416-3.378-11.412-3.378-8.966 0-14.777 5.198-14.777 13.186 0 7.8 5.584 13.335 13.447 13.335 7.424 0 13.567-5.259 13.188-14.561m-41.088 14.067h-8.022v-25.522h8.022v11.226c0 4.751 2.478 7.254 6.601 7.254 1.264 0 2.643-0.543 4.754-1.865l2.217 7.08c-2.32 1.711-3.711 2.321-5.31 2.321-2.577 0-6.305-1.432-8.262-6.388v5.894zm-47.484 12.239h-8.024v-27.697c0-5.028 1.383-10.289 9.746-10.569l2.549 5.815c-3.432 0.658-4.271 2.214-4.271 6.092v26.359zm-14.188-12.239h-8.023v-25.521h8.023v25.521zm-4.041 12.737c-2.436 0-4.43-1.988-4.43-4.425 0-2.443 1.994-4.436 4.43-4.436 2.438 0 4.422 1.993 4.422 4.436 0 2.437-1.984 4.425-4.422 4.425m-272.78-2.935c-4.763 2.051-8.583 2.935-12.798 2.935-8.745 0-14.393-4.326-14.393-10.852 0-13.563 19.209-11.305 19.209-17.508 0-2.202-1.928-3.478-5.529-3.478-4.162 0-7.481 1.276-12.899 4.873v-8.145c3.763-1.93 7.031-3.654 13.612-3.654 8.427 0 14.515 4.209 14.515 11.457 0 13.191-19.213 11.581-19.213 17.289 0 1.866 2.153 3.092 5.531 3.092 3.222 0 6.475-0.938 11.965-3.374v7.365zm245.95 2.437h-8.026v-37.761h8.026v15.115c0 2.351 1.67 5.04 5.371 5.04 2.49 0 4.148-1.782 4.148-5.599v-14.556h8.041v16.27c0 6.931-4.711 9.746-9.369 9.746-3.144 0-5.867-1.326-8.191-4.262v16.007zm-111.54 0h-8.027v-37.761h8.027v15.115c0 2.351 1.67 5.04 5.369 5.04 2.492 0 4.15-1.782 4.15-5.599v-14.556h8.041v16.27c0 6.931-4.711 9.746-9.369 9.746-3.144 0-5.867-1.326-8.191-4.262v16.007zm41.439-22.096c-0.336 3.502-2.441 5.581-5.547 5.581-3.146 0-5.203-2.038-5.533-5.581h11.08zm7.086-4.21h-18.332c0.277-4.54 3.379-7.203 8.414-7.203 3.217 0 5.711 0.942 9.481 3.654v-5.033c-4.606-3.378-9.42-3.378-11.418-3.378-8.969 0-14.778 5.198-14.778 13.186 0 7.8 5.592 13.335 13.45 13.335 7.421 0 13.574-5.259 13.183-14.561m-99.79 4.229c-0.333 3.504-2.444 5.582-5.537 5.582-3.165 0-5.202-2.038-5.545-5.582h11.082zm6.76-4.209h-18.334c0.278-4.539 3.377-7.203 8.425-7.203 3.207 0 5.696 0.942 9.459 3.655v-5.034c-4.596-3.378-9.411-3.378-11.406-3.378-8.966 0-14.779 5.199-14.779 13.187 0 7.798 5.586 13.334 13.455 13.334 7.423 0 13.568-5.26 13.18-14.561m-65.413 7.753c-0.936 0.551-2.439 1.446-4.656 1.446-4.537 0-6.088-4.821-6.088-8.48 0-3.379 1.775-6.917 6.245-6.917 2.39 0 3.612 0.999 4.499 1.715v12.236zm11.403-15.894-5.71-3.819c-2.478 0.506-4.147 1.826-4.989 3.152-1.483-1.382-3.477-3.152-7.575-3.152-8.632 0-12.116 7.691-12.116 13.236 0 6.139 3.754 13.285 12.337 13.285 3.426 0 5.48-1.055 6.699-1.724v1.23h7.973v-16.664c0-2.338 0.447-4.927 3.381-5.544m195.9 8.177c-5.429-2.607-8.748-4.149-13.672-4.149-7.861 0-13.464 4.812-13.464 11.571 0 6.696 5.658 11.462 13.681 11.462 4.649 0 8.856-1.557 13.016-3.873v8.409c-3.711 2.221-8.422 3.328-13.68 3.328-14.453 0-22.713-9.421-22.713-19.491 0-9.749 7.319-19.273 21.998-19.273 5.592 0 9.571 1.046 14.834 3.769v8.247zm-109.79 8.533h-9.298v-10.519c0-2.499 1.445-4.105 3.931-4.105 1.657 0 3.211 0.388 5.367 1.495v-5.807c-2.822-1.162-4.928-1.613-7.412-1.613-5.317 0-9.912 2.437-9.912 9.58v10.969h-3.651v1.547l10.675 11.951h0.999v-8.02h9.298v-5.478z"/>
    </g>
   </g>
  </g>
  <g id="g4195">
   <g id="g4197" clip-path="url(#clipPath4199)">
    <g id="g4373">
     <g id="g4381">
      <g id="g4383" opacity="0.2" clip-path="url(#clipPath4377)">
       <path id="path4385" d="m587.91 20.977h-566.93v115.37h566.93v-115.37z" stroke="#00c9ff" stroke-dasharray="2.835, 1.417" stroke-width="0.283" fill="none"/>
      </g>
     </g>
    </g>
   </g>
  </g>
 </g>
</svg>
